<?xml version="1.0"?>
<svg xmlns="http://www.w3.org/2000/svg" xmlns:xlink="http://www.w3.org/1999/xlink" xmlns:svgjs="http://svgjs.com/svgjs" version="1.1" width="512" height="512" x="0" y="0" viewBox="0 0 512 512" style="enable-background:new 0 0 512 512" xml:space="preserve" class=""><g><g xmlns="http://www.w3.org/2000/svg"><path d="m59.104 502.763-1.857-49.775c-.36-9.656-3.441-19.013-8.887-26.995l-33.011-48.377c-15.033-22.03-15.412-50.921-.963-73.338l55.578-85.98 38.492 125.672-14.928 159.345-29.886 3.355c-2.362.265-4.45-1.532-4.538-3.907z" fill="#f1d0a5" data-original="#f1d0a5" style="" class=""/><path d="m482.089 355.518h-388.528c-14.417 0-26.105-11.687-26.105-26.105v-259.014c0-14.417 11.687-26.105 26.105-26.105h388.528c14.417 0 26.105 11.687 26.105 26.105v259.014c0 14.417-11.688 26.105-26.105 26.105z" fill="#9f5b43" data-original="#365e7d" style="" class=""/><path d="m482.089 44.295h-17.726c14.417 0 26.105 11.688 26.105 26.105v259.014c0 14.417-11.687 26.105-26.105 26.105h17.726c14.417 0 26.105-11.687 26.105-26.105v-259.015c0-14.417-11.687-26.104-26.105-26.104z" fill="#d98c75" data-original="#2b4d66" style="" class=""/><path d="m472.022 79.047h-357.325c-.783 0-1.42.674-1.42 1.501v238.717c0 .827.637 1.501 1.42 1.501h357.325c.783 0 1.421-.674 1.421-1.501v-238.717c-.001-.828-.638-1.501-1.421-1.501z" fill="#f7f7f7" data-original="#d3effb" style="" class=""/><path d="m472.022 79.047h-18.964c.784 0 1.421.674 1.421 1.501v238.717c0 .827-.637 1.501-1.421 1.501h18.964c.784 0 1.421-.674 1.421-1.501v-238.717c-.001-.828-.638-1.501-1.421-1.501z" fill="#ebebeb" data-original="#b1e4f9" style="" class=""/><g><path d="m90.591 213.708c-4.204 0-7.611-3.407-7.611-7.611v-12.381c0-4.204 3.408-7.611 7.611-7.611s7.611 3.407 7.611 7.611v12.381c0 4.203-3.408 7.611-7.611 7.611z" fill="#d98c75" data-original="#2b4d66" style="" class=""/></g><path d="m133.184 495.449.84-36.145c.147-6.335 1.286-12.607 3.375-18.589 5.868-16.804 2.545-35.451-8.767-49.194-2.381-2.893-2.754-6.947-.939-10.225l48.074-86.856c3.899-7.044 2.61-15.824-3.148-21.451-7.209-7.044-18.812-6.742-25.645.668l-79.967 86.719 5.262 60.435 21.259 82.504 36.013-3.9c2.037-.22 3.596-1.917 3.643-3.966z" fill="#f1d0a5" data-original="#f1d0a5" style="" class=""/><path d="m175.768 294.44c3.899-7.044 2.61-15.824-3.148-21.451-6.495-6.347-16.547-6.71-23.473-1.304.516.404 1.018.835 1.498 1.304 5.758 5.626 7.047 14.407 3.148 21.451l-48.074 86.856c-1.814 3.278-1.442 7.332.939 10.225 11.311 13.742 14.635 32.39 8.767 49.194-2.089 5.982-3.228 12.254-3.375 18.589l-.613 26.388c-.177 7.633-5.983 13.952-13.574 14.774l-2.555.277c-1.253.136-2.095 1.352-1.78 2.573l36.013-3.9c2.038-.221 3.596-1.917 3.644-3.966l.815-35.069c.155-6.671 1.178-13.322 3.384-19.619 5.891-16.816 2.572-35.486-8.75-49.241-2.381-2.893-2.753-6.947-.939-10.225z" fill="#f1b986" data-original="#f1b986" style="" class=""/><path d="m421.058 282.768h-180.878c-4.621 0-8.367-3.746-8.367-8.367v-81.64c0-4.621 3.746-8.367 8.367-8.367h180.878c4.621 0 8.367 3.746 8.367 8.367v81.64c-.001 4.621-3.746 8.367-8.367 8.367z" fill="#dd636e" data-original="#dd636e" style="" class=""/><path d="m421.058 184.395h-24.709c4.621 0 8.367 3.746 8.367 8.367v81.64c0 4.621-3.746 8.367-8.367 8.367h24.709c4.621 0 8.367-3.746 8.367-8.367v-81.64c-.001-4.622-3.746-8.367-8.367-8.367z" fill="#da4a54" data-original="#da4a54" style="" class=""/><g><path d="m431.248 512c2.256 0 4.085-1.829 4.085-4.085v-11.833c0-6.684 1.845-13.21 5.289-18.712l15.115-24.144c7.01-11.198 8.583-25.475 4.208-38.195l-7.16-20.818-13.84-29.313h-102.281l-23.498 29.312-35.173-17.125c-6.383-3.108-13.847-1.533-18.736 3.954-6.483 7.275-6.388 18.962.213 26.108l45.599 49.368c5.179 5.607 8.097 13.272 8.097 21.272v30.125c0 2.256 1.829 4.085 4.085 4.085h113.997z" fill="#f1d0a5" data-original="#f1d0a5" style="" class=""/></g><g><path d="m459.945 415.031-7.16-20.818-13.84-29.313-16.092-.566 12.479 29.878 5.593 20.818c4.375 12.721 2.802 26.997-4.208 38.195l-15.115 24.144c-3.444 5.502-5.289 12.028-5.289 18.712v15.919h14.934c2.256 0 4.085-1.829 4.085-4.085v-11.833c0-6.684 1.845-13.21 5.289-18.712l15.115-24.144c7.011-11.198 8.584-25.475 4.209-38.195z" fill="#f1b986" data-original="#f1b986" style="" class=""/></g><g fill="#f1d0a5"><path d="m348.071 394.212v-130.226c0-10.619-7.814-19.228-17.452-19.228-9.639 0-17.452 8.609-17.452 19.228v130.227h34.904z" fill="#f1d0a5" data-original="#f1d0a5" style="" class=""/><path d="m382.976 394.212v-56.295c0-6.443-5.856-11.666-13.08-11.666h-8.745c-7.224 0-13.08 5.223-13.08 11.666v56.295z" fill="#f1d0a5" data-original="#f1d0a5" style="" class=""/><path d="m417.88 394.212v-56.295c0-6.443-5.856-11.666-13.08-11.666h-8.745c-7.224 0-13.08 5.223-13.08 11.666v56.295z" fill="#f1d0a5" data-original="#f1d0a5" style="" class=""/><path d="m452.785 394.212v-56.295c0-6.443-5.856-11.666-13.08-11.666h-8.745c-7.224 0-13.08 5.223-13.08 11.666v56.295z" fill="#f1d0a5" data-original="#f1d0a5" style="" class=""/></g><path d="m439.705 326.251h-8.745c-1.529 0-2.99.246-4.354.676 5.08 1.601 8.726 5.911 8.726 10.99v56.295h17.452v-56.295c.001-6.443-5.855-11.666-13.079-11.666z" fill="#f1b986" data-original="#f1b986" style="" class=""/><g><path d="m348.071 401.824c-4.204 0-7.612-3.407-7.612-7.611v-56.294c0-4.204 3.407-7.612 7.612-7.612s7.611 3.407 7.611 7.612v56.294c0 4.203-3.407 7.611-7.611 7.611z" fill="#f1b986" data-original="#f1b986" style="" class=""/></g><g><path d="m382.976 401.824c-4.204 0-7.612-3.407-7.612-7.611v-56.294c0-4.204 3.407-7.612 7.612-7.612s7.611 3.407 7.611 7.612v56.294c0 4.203-3.407 7.611-7.611 7.611z" fill="#f1b986" data-original="#f1b986" style="" class=""/></g><g><path d="m417.88 401.824c-4.204 0-7.612-3.407-7.612-7.611v-56.294c0-4.204 3.407-7.612 7.612-7.612s7.611 3.407 7.611 7.612v56.294c0 4.203-3.407 7.611-7.611 7.611z" fill="#f1b986" data-original="#f1b986" style="" class=""/></g><g><path d="m220.224 269.077c-25.606 0-46.439-20.833-46.439-46.438 0-16.964 9.156-32.357 23.714-40.51v-174.518c0-4.204 3.408-7.611 7.612-7.611s7.611 3.407 7.611 7.611v179.253c0 3.057-1.83 5.819-4.647 7.01-11.583 4.899-19.067 16.19-19.067 28.765 0 17.212 14.003 31.215 31.216 31.215s31.215-14.003 31.215-31.215c0-4.204 3.408-7.611 7.611-7.611 4.204 0 7.612 3.407 7.612 7.611 0 25.606-20.832 46.438-46.438 46.438z" fill="#9cbfb1" data-original="#61a2f9" style="" class=""/></g><g><path d="m243.392 15.223h-73.116c-4.204 0-7.611-3.407-7.611-7.611s3.407-7.612 7.611-7.612h73.116c4.204 0 7.611 3.407 7.611 7.611s-3.407 7.612-7.611 7.612z" fill="#d98c75" data-original="#2b4d66" style="" class=""/></g><g><path d="m402.794 119.738h-148.336c-4.204 0-7.611-3.407-7.611-7.611s3.408-7.611 7.611-7.611h148.337c4.204 0 7.611 3.407 7.611 7.611s-3.407 7.611-7.612 7.611z" fill="#9f5b43" data-original="#365e7d" style="" class=""/></g><g><path d="m362.2 152.903h-107.742c-4.204 0-7.611-3.407-7.611-7.611s3.408-7.611 7.611-7.611h107.742c4.204 0 7.612 3.407 7.612 7.611s-3.408 7.611-7.612 7.611z" fill="#9f5b43" data-original="#365e7d" style="" class=""/></g></g></g></svg>
